<svg width="166" height="67" viewBox="0 0 166 67" fill="none" xmlns="http://www.w3.org/2000/svg">
<path d="M30.849 33.4875C30.849 27.7921 35.4433 23.1505 41.2169 23.1505C47.0151 23.1505 51.6094 27.767 51.6094 33.4875C51.6094 39.1577 47.0151 43.8746 41.2169 43.8746C35.4433 43.8244 30.849 39.1326 30.849 33.4875ZM46.622 33.4875C46.622 30.6272 44.2143 28.1183 41.1924 28.1183C38.2442 28.1183 35.7873 30.6272 35.7873 33.4875C35.7873 36.3728 38.195 38.9068 41.1924 38.9068C44.1898 38.8817 46.622 36.3728 46.622 33.4875ZM135.29 33.638C135.29 27.3907 140.277 23.1254 144.798 23.1254C147.869 23.1254 149.638 24.0789 150.842 25.9355L151.333 23.5018H155.952V43.448H151.333L150.719 41.3907C149.368 42.8961 147.672 43.8244 144.798 43.8244C140.351 43.8244 135.29 39.8602 135.29 33.638ZM151.087 33.5878C151.087 30.5771 148.655 28.0932 145.682 28.0932C142.709 28.0932 140.277 30.5771 140.277 33.6129V33.638C140.277 36.3978 142.685 38.8817 145.682 38.8817C148.655 38.8817 151.087 36.4229 151.087 33.5878ZM129.614 25.8351V23.5269H124.553V43.4731H129.614V32.7348C129.614 29.4982 131.187 27.8172 133.889 27.8172C134.061 27.8172 134.233 27.8423 134.405 27.8423L135.339 23.0251C132.71 23.0251 130.794 23.9534 129.614 25.8351ZM78.8314 25.8351V23.5269H73.7702L73.8193 43.4731H78.8805L78.8559 32.7348C78.8559 29.4982 80.4037 27.8172 83.1063 27.8172C83.2782 27.8172 83.4502 27.8172 83.6222 27.8423L84.5558 23.0251C81.9024 23.0251 79.9861 23.9534 78.8314 25.8351ZM53.3538 35.7455V23.552H58.4149V35.1434C58.4149 37.7025 59.8153 39.2079 62.2476 39.2079C64.9501 39.2079 66.5225 37.5269 66.5225 34.2903V23.552H71.5836V43.4982H66.5225V41.19C65.3432 43.0717 63.4023 44 60.7244 44C56.1792 43.9749 53.3538 40.6129 53.3538 35.7455ZM102.589 33.5125C102.589 27.9176 106.52 23.1505 112.736 23.1505C118.485 23.1505 122.563 27.8674 122.539 33.4373C122.539 33.9892 122.49 34.5161 122.416 35.0681L107.527 35.043C108.117 37.4516 110.009 39.1577 112.957 39.1577C114.726 39.1577 116.618 38.4803 117.772 36.9749L121.237 39.7849C119.468 42.3441 116.323 43.8495 113.006 43.8495C107.085 43.8244 102.565 39.3333 102.589 33.5125ZM117.404 31.4301C117.109 29.3978 115.045 27.8423 112.638 27.8423C110.279 27.8423 108.412 29.2473 107.65 31.405L117.404 31.4301ZM84.5804 39.1075L89.0764 36.6989C89.838 38.3548 91.3122 39.3082 93.4005 39.3082C95.3414 39.3082 96.0785 38.6559 96.0785 37.8029C96.0785 34.5914 85.4403 36.5484 85.4403 29.1971C85.4403 25.1326 88.9045 23 93.2039 23C96.4716 23 99.3461 24.4803 100.918 27.2151L96.4716 29.6237C95.8082 28.2688 94.5798 27.5161 93.0074 27.5161C91.4841 27.5161 90.7225 28.0681 90.7225 28.9964C90.7225 32.1075 101.361 30.1254 101.361 37.6022C101.361 41.491 98.2651 43.8244 93.2777 43.8244C89.0273 43.8244 86.0545 42.3943 84.5804 39.1075ZM10.752 33.4875C10.752 27.7419 15.3463 23.1004 21.1199 23.1004C24.6332 23.0753 27.9254 24.8566 29.8909 27.8423L25.5914 30.3763C24.5841 28.8961 22.938 28.0179 21.169 28.0179C18.2208 28.0179 15.764 30.5269 15.764 33.4373C15.764 36.3226 18.1717 38.8566 21.169 38.8566C23.0363 38.8566 24.756 37.9032 25.7388 36.2975L30.0137 38.8817C28.0728 41.9426 24.7314 43.8244 21.1936 43.7993C15.3463 43.8244 10.752 39.1326 10.752 33.4875Z" fill="#070D04"/>
</svg>
