<svg width="97" height="67" viewBox="0 0 97 67" fill="none" xmlns="http://www.w3.org/2000/svg">
<path fill-rule="evenodd" clip-rule="evenodd" d="M59.3271 19.0559L60.81 12H17.5924L10.5098 45.9114H46.6448L44.6546 55H79.2677L86.8967 19.0559H59.3271ZM33.9234 31.0764C33.9167 31.156 33.9124 31.2356 33.908 31.316C33.8994 31.4724 33.8906 31.6317 33.8648 31.7995C33.8453 32.0536 33.8258 32.2882 33.8063 32.5227C33.7868 32.7573 33.7673 32.9527 33.7283 33.1286H21.0459C21.0264 33.285 21.0264 33.4218 21.0264 33.5782V34.0277C21.0264 34.9268 21.163 35.7086 21.4166 36.3341C21.6703 36.9791 22.0215 37.4873 22.4312 37.8977C22.8409 38.3082 23.3287 38.6014 23.836 38.7773C24.3628 38.9532 24.8896 39.0509 25.4164 39.0509C26.5871 39.0509 27.5237 38.8555 28.2261 38.445C28.9285 38.0345 29.4748 37.4873 29.8455 36.8032H32.8307C32.6551 37.4873 32.343 38.1127 31.9137 38.6991C31.4845 39.2855 30.9576 39.7936 30.3138 40.2236C29.6699 40.6536 28.909 40.9859 28.07 41.24C27.2115 41.4941 26.2749 41.6114 25.2603 41.6114C24.2848 41.6114 23.3482 41.455 22.4897 41.1227C21.6117 40.81 20.8508 40.3214 20.2069 39.6959C19.563 39.0705 19.0557 38.2886 18.6655 37.3895C18.2948 36.4709 18.0997 35.4155 18.0997 34.2232C18.0997 32.6009 18.3338 31.1155 18.7826 29.7864C19.2313 28.4573 19.8557 27.3041 20.6752 26.3464C21.4751 25.3886 22.4507 24.6459 23.5824 24.1377C24.714 23.61 25.9432 23.3559 27.2895 23.3559C28.187 23.3559 29.0455 23.5123 29.865 23.825C30.6845 24.1377 31.3869 24.6068 31.9917 25.2127C32.5966 25.8186 33.0844 26.5614 33.4356 27.4409C33.7868 28.3205 33.9819 29.3368 33.9819 30.49C33.9429 30.6268 33.9234 30.8418 33.9234 31.0764ZM47.2496 41.2595L47.7569 38.8555H47.5033C46.8594 39.6959 46.0594 40.3605 45.0839 40.8491C44.1083 41.3377 43.0742 41.5723 41.9425 41.5723C41.0645 41.5723 40.2255 41.4159 39.4646 41.0641C38.6841 40.7318 38.0208 40.2627 37.4354 39.6373C36.8501 39.0118 36.4013 38.2691 36.0501 37.3895C35.7184 36.51 35.5428 35.5132 35.5428 34.4382C35.5428 33.3827 35.6404 32.3664 35.855 31.4086C36.0696 30.4509 36.3623 29.5518 36.7525 28.7309C37.1427 27.91 37.611 27.1673 38.1573 26.5027C38.7036 25.8382 39.3085 25.2714 39.9914 24.8023C40.6548 24.3332 41.3767 23.9814 42.1572 23.7273C42.9376 23.4732 43.7571 23.3559 44.5961 23.3559C45.2204 23.3559 45.8253 23.4341 46.3911 23.61C46.9569 23.7859 47.4837 24.0205 47.952 24.3332C48.4203 24.6459 48.8105 25.0173 49.1422 25.4668C49.4739 25.9164 49.708 26.3855 49.8641 26.9132H50.1178L52.2835 16.6518H55.1907L49.9617 41.2791H47.2496V41.2595ZM75.5411 50.3677H69.2194L65.083 41.2791H64.5757L56.9272 50.3677H50.6446L62.566 36.2168L57.0443 23.6882H63.483L67.1512 32.3077H67.5024L74.4484 23.6882H80.8286L69.434 36.8423L75.5411 50.3677ZM48.0685 27.1673C47.6783 26.7568 47.2295 26.4246 46.6832 26.19C46.1369 25.9555 45.532 25.8382 44.8296 25.8382C43.9321 25.8382 43.0931 26.0337 42.3127 26.4441C41.5322 26.8546 40.8688 27.4018 40.303 28.125C39.7372 28.8482 39.2884 29.7082 38.9567 30.705C38.625 31.7018 38.4689 32.7964 38.4689 33.9887C38.4689 34.7314 38.5665 35.4155 38.7811 36.0409C38.9957 36.6664 39.2884 37.1941 39.6786 37.6437C40.0689 38.0932 40.5176 38.4255 41.0444 38.6796C41.5712 38.9337 42.1761 39.0509 42.82 39.0509C43.737 39.0509 44.576 38.8359 45.3564 38.4059C46.1369 37.9759 46.8198 37.3896 47.3856 36.6468C47.9709 35.9041 48.4197 35.0246 48.7319 34.0082C49.0636 32.9918 49.2197 31.9168 49.2197 30.7441C49.2197 29.9818 49.1221 29.3173 48.9075 28.7114C48.7514 28.1055 48.4587 27.5973 48.0685 27.1673ZM28.7308 26.1509C29.2186 26.3855 29.6478 26.6982 29.9795 27.0891C30.3307 27.48 30.5844 27.9296 30.721 28.4182C30.8966 28.9264 30.9746 29.4736 30.9746 30.06V30.49C30.9746 30.6464 30.9746 30.7441 30.9551 30.8027H21.3945C21.6092 30.06 21.8823 29.3759 22.2335 28.7505C22.5847 28.1446 22.9945 27.6168 23.4822 27.1673C23.97 26.7373 24.4968 26.3855 25.0822 26.1509C25.6675 25.9164 26.2919 25.7991 26.9748 25.7991C27.6382 25.7991 28.2235 25.9164 28.7308 26.1509Z" fill="#070D04"/>
</svg>
