<svg width="208" height="67" viewBox="0 0 208 67" fill="none" xmlns="http://www.w3.org/2000/svg">
<path fill-rule="evenodd" clip-rule="evenodd" d="M13.2629 12H49.8583C51.5933 12 53.0391 13.4162 53.0391 15.122V51.9102C53.0391 53.616 51.6254 55 49.8583 55H13.2629C11.4957 55 10.082 53.616 10.082 51.9102V15.0898C10.082 13.384 11.4957 12 13.2629 12ZM16.4437 28.1572V48.6916H22.8053V28.1572H16.4437ZM15.9296 21.6557C15.9296 23.6834 17.5682 25.357 19.6245 25.357C21.6808 25.357 23.3194 23.6834 23.3194 21.6557C23.3194 19.628 21.6487 17.9543 19.6245 17.9543C17.5682 17.9543 15.9296 19.628 15.9296 21.6557ZM40.3159 48.6916H46.6775H46.7096V37.4266C46.7096 31.8907 45.5208 27.6422 39.0628 27.6422C35.9463 27.6422 33.8578 29.3481 33.0225 30.9573H32.9261V28.1572H26.8215V48.7238H33.1831V38.5531C33.1831 35.8817 33.6972 33.2747 37.0065 33.2747C40.2837 33.2747 40.3159 36.3323 40.3159 38.7141V48.6916ZM69.1383 23.9731H67.7888V43.3488H78.0381V42.1579H69.1383V23.9731ZM184.322 29.4768C183.905 30.732 183.712 32.0838 183.712 33.6287C183.712 35.1737 183.905 36.5576 184.29 37.7163C184.708 38.9716 185.254 40.0337 185.993 40.9027C186.732 41.8039 187.6 42.4476 188.628 42.9304C189.624 43.4132 190.78 43.6385 192.001 43.6385C193.286 43.6385 194.411 43.4454 195.375 43.027C196.371 42.6407 197.142 42.0936 197.752 41.4499V33.7897H191.841V34.9484H196.435V40.9671C195.953 41.4499 195.343 41.8039 194.572 42.0614C193.8 42.3189 192.965 42.4476 192.098 42.4476C191.005 42.4476 190.009 42.2223 189.142 41.8039C188.274 41.3855 187.535 40.8061 186.925 40.0337C186.314 39.2934 185.865 38.36 185.543 37.2657C185.222 36.1714 185.061 34.9484 185.061 33.5966C185.061 32.2448 185.254 31.0217 185.575 29.9596C185.897 28.8975 186.379 27.9641 186.989 27.2238C187.6 26.4835 188.371 25.9042 189.238 25.4858C190.106 25.0674 191.102 24.8743 192.226 24.8743C193.286 24.8743 194.154 25.0674 194.861 25.4536C195.568 25.8076 196.178 26.2904 196.692 26.8376L197.495 25.9686C197.251 25.6933 196.978 25.4471 196.676 25.1748L196.628 25.1317C196.274 24.8743 195.889 24.6168 195.471 24.3915C195.054 24.1662 194.572 23.9731 194.025 23.8443C193.511 23.7156 192.901 23.6512 192.258 23.6512C190.973 23.6512 189.816 23.8765 188.756 24.3271C187.728 24.7777 186.796 25.4536 186.057 26.3226C185.318 27.1916 184.74 28.2537 184.322 29.4768ZM165.912 23.9731H164.498V43.3166H165.751V31.2792C165.751 30.3458 165.719 29.4446 165.687 28.5434C165.623 27.6756 165.591 26.7435 165.559 25.8114L165.559 25.8076H165.687L167.904 29.6699L176.033 43.3488H177.447V23.9731H176.194V35.8496C176.194 36.8151 176.226 37.7485 176.258 38.6819C176.322 39.6475 176.354 40.5808 176.386 41.5142H176.258L174.041 37.652L165.912 23.9731ZM157.012 23.9731H155.663V43.3488H157.012V23.9731ZM136.899 23.9731H135.486V43.3166H136.739V31.2792C136.739 30.3458 136.706 29.4446 136.674 28.5434C136.61 27.6754 136.578 26.7431 136.546 25.8107L136.546 25.8076H136.674L138.891 29.6699L147.02 43.3488H148.434V23.9731H147.181V35.8496C147.181 36.8134 147.213 37.7451 147.245 38.6768L147.245 38.6819C147.309 39.647 147.341 40.5799 147.373 41.5129L147.373 41.5142H147.245L145.028 37.652L136.899 23.9731ZM126.457 32.277C125.558 32.9529 124.24 33.3069 122.505 33.3069L118.682 33.3391V25.1317H122.505C124.24 25.1317 125.558 25.4214 126.457 26.0329C127.357 26.6123 127.807 27.6422 127.807 29.0906C127.807 30.5067 127.357 31.5689 126.457 32.277ZM122.794 34.4334L128.032 43.3488H129.542L124.24 34.369C125.782 34.1437 126.971 33.5966 127.871 32.7276C128.771 31.8585 129.22 30.6355 129.22 29.0906C129.22 28.1572 129.06 27.3847 128.771 26.741C128.481 26.0973 128.032 25.5823 127.485 25.1639C126.907 24.7455 126.232 24.4558 125.461 24.2627C124.69 24.0696 123.823 23.9731 122.859 23.9731H117.332V43.3488H118.682V34.4334H122.794ZM107.179 31.9551L108.4 35.5599H101.525L102.746 31.9551C103.08 31.0265 103.374 30.1393 103.659 29.2768C103.73 29.0631 103.8 28.8509 103.87 28.64C104.224 27.5779 104.577 26.4514 104.898 25.2605H105.027C105.348 26.4514 105.702 27.5779 106.055 28.64C106.228 29.1596 106.408 29.6868 106.593 30.2256C106.786 30.7881 106.983 31.3632 107.179 31.9551ZM101.107 36.6864H108.786L111.035 43.3166H112.481L105.669 23.9409H104.32L97.4764 43.3166H98.858L101.107 36.6864ZM93.8779 23.9731H83.3073V43.381H94.1671V42.1901H84.6568V33.6609H92.4V32.4701H84.6568V25.1639H93.8779V23.9731Z" fill="#070D04"/>
</svg>
