<svg width="26" height="30" viewBox="0 0 26 30" fill="none" xmlns="http://www.w3.org/2000/svg">
<g clip-path="url(#clip0_3525_4141)">
<path d="M18.4244 16.1125C18.6744 16.1125 18.8994 16.0125 19.1369 15.9875C19.6654 15.9163 20.2031 15.9586 20.7139 16.1117C21.2248 16.2647 21.6971 16.525 22.0994 16.875C22.2316 16.9846 22.3492 17.1106 22.4494 17.25C22.5994 17.45 22.5369 17.6125 22.2869 17.6625C22.0369 17.7125 21.4869 17.7875 21.0369 17.8375C19.7492 17.9338 18.4842 18.2289 17.2869 18.7125C16.4454 19.0594 15.6808 19.5693 15.0372 20.2129C14.3937 20.8565 13.8838 21.621 13.5369 22.4625C13.5369 22.6 13.4119 22.725 13.3244 22.9125C13.2619 22.8 13.2119 22.7375 13.1869 22.675C12.7715 21.6278 12.1145 20.6936 11.2695 19.9485C10.4245 19.2034 9.41538 18.6686 8.32441 18.3875C7.28229 18.1034 6.21457 17.9234 5.13691 17.85C4.86257 17.8152 4.59106 17.7609 4.32441 17.6875C4.17441 17.6875 4.12441 17.525 4.22441 17.4C4.3503 17.2094 4.50171 17.037 4.67441 16.8875C5.13247 16.5263 5.66464 16.2706 6.23293 16.1388C6.80122 16.007 7.3916 16.0023 7.96191 16.125C8.10707 16.1449 8.25426 16.1449 8.39941 16.125L7.81191 15.8125C6.39577 15.1084 4.86958 14.6518 3.29941 14.4625C2.99059 14.4254 2.68537 14.3627 2.38691 14.275C2.08691 14.1875 2.04941 13.9875 2.27441 13.775C2.70862 13.4046 3.24445 13.1737 3.81191 13.1125C5.14418 12.9018 6.5082 13.0352 7.77441 13.5L7.99941 13.5625C7.90458 13.4847 7.80433 13.4137 7.69941 13.35C6.88825 12.8294 5.97701 12.4845 5.02441 12.3375C3.94941 12.1625 2.86191 12.05 1.77441 11.9125C1.48773 11.8777 1.20374 11.8234 0.924414 11.75C0.749414 11.6167 0.774414 11.45 0.999414 11.25C2.59941 9.92503 4.18691 8.56253 5.84941 7.21253C5.97892 7.09302 6.06871 6.9367 6.1067 6.76462C6.14469 6.59255 6.12906 6.41296 6.06191 6.25003C5.98715 6.31682 5.91621 6.38777 5.84941 6.46253L4.14941 7.71253L3.99941 7.82503C3.86191 7.90003 3.77441 7.82503 3.76191 7.70003C3.76191 7.25003 3.76191 6.78753 3.76191 6.33753C3.76819 6.28773 3.76819 6.23733 3.76191 6.18753C3.73064 5.99686 3.75671 5.8012 3.83683 5.62539C3.91695 5.44957 4.0475 5.30152 4.21191 5.20003C4.86191 4.63753 5.46191 4.06253 6.13691 3.48753L6.31191 3.32503C6.06694 3.13735 5.87244 2.89175 5.74589 2.61029C5.61934 2.32882 5.56471 2.02033 5.58691 1.71253C5.59853 1.25815 5.78162 0.824991 6.09941 0.500027C6.45082 0.182928 6.90734 0.00740555 7.38066 0.00740555C7.85399 0.00740555 8.3105 0.182928 8.66191 0.500027C8.86662 0.682073 9.02707 0.908442 9.13105 1.16189C9.23503 1.41533 9.27979 1.68917 9.26191 1.96253C9.25516 2.25149 9.1817 2.53497 9.04726 2.79084C8.91282 3.04671 8.72104 3.26804 8.48691 3.43753C8.56101 3.46344 8.63222 3.49695 8.69941 3.53753L10.2369 4.78753C10.3744 4.90003 10.4619 4.90003 10.5869 4.78753L12.0994 3.45003C12.2244 3.33753 12.2244 3.26253 12.0994 3.13753C11.8378 2.88925 11.66 2.56574 11.5906 2.21185C11.5211 1.85796 11.5635 1.49123 11.7119 1.16253C11.8325 0.824102 12.0544 0.530998 12.3473 0.323021C12.6403 0.115045 12.9901 0.00227495 13.3494 2.7135e-05C13.7265 -0.0258803 14.102 0.0692683 14.4213 0.271617C14.7406 0.473966 14.9869 0.772949 15.1244 1.12503C15.2799 1.47501 15.3237 1.86441 15.2499 2.24019C15.1761 2.61597 14.9882 2.95987 14.7119 3.22503L14.6369 3.31253L14.7369 3.43753L16.2494 4.76253C16.2703 4.79095 16.2976 4.81406 16.3291 4.82999C16.3606 4.84591 16.3954 4.85421 16.4307 4.85421C16.4659 4.85421 16.5007 4.84591 16.5322 4.82999C16.5637 4.81406 16.591 4.79095 16.6119 4.76253L18.1369 3.51253L18.3494 3.38753C18.0724 3.18128 17.8564 2.90387 17.7243 2.58475C17.5923 2.26563 17.5491 1.91671 17.5994 1.57503C17.6228 1.33082 17.6958 1.09397 17.814 0.879011C17.9323 0.664055 18.0932 0.475535 18.2869 0.325027C18.6564 0.0500183 19.1126 -0.0824315 19.5719 -0.0479857C20.0312 -0.0135399 20.4626 0.185488 20.7869 0.512527C20.9649 0.7103 21.1003 0.942614 21.1845 1.19499C21.2688 1.44737 21.3002 1.7144 21.2767 1.97944C21.2533 2.24448 21.1755 2.50184 21.0482 2.7355C20.9209 2.96915 20.7469 3.17409 20.5369 3.33753L20.8494 3.62503L22.9744 5.52503C23.0487 5.59021 23.1075 5.67119 23.1464 5.76203C23.1853 5.85288 23.2034 5.95128 23.1994 6.05003C23.1994 6.58753 23.1994 7.12503 23.1994 7.66253C23.191 7.76471 23.17 7.86547 23.1369 7.96253C23.0339 7.92845 22.9336 7.88666 22.8369 7.83753L21.2744 6.58753C21.1377 6.49227 20.9958 6.40464 20.8494 6.32503C20.774 6.46688 20.7528 6.63128 20.7896 6.78764C20.8263 6.944 20.9187 7.08167 21.0494 7.17503L25.7244 11.1C25.8494 11.2125 26.0619 11.325 25.9869 11.5C25.9398 11.5685 25.8786 11.6262 25.8075 11.6693C25.7364 11.7124 25.6569 11.7399 25.5744 11.75C24.9619 11.8375 24.3244 11.9125 23.7494 11.975C22.4383 12.0515 21.1475 12.3342 19.9244 12.8125C19.4959 13.0055 19.0785 13.2225 18.6744 13.4625V13.55L19.1369 13.4C20.2408 13.0416 21.4083 12.9222 22.5619 13.05C23.1128 13.1017 23.6459 13.2723 24.1244 13.55C24.2224 13.6068 24.311 13.6785 24.3869 13.7625C24.5994 13.9625 24.5744 14.1625 24.2869 14.2625C24.0058 14.3542 23.7172 14.4211 23.4244 14.4625C21.7477 14.6407 20.1194 15.1326 18.6244 15.9125L18.3869 16.05L18.4244 16.1125ZM21.1869 17.175V17.0875C21.0894 16.9946 20.9801 16.9147 20.8619 16.85C20.3342 16.6094 19.748 16.5269 19.1744 16.6125C18.3917 16.7169 17.6387 16.9806 16.9619 17.3875C16.7744 17.4875 16.6869 17.45 16.4619 17.1625C16.2369 16.875 16.4619 16.95 16.5619 16.875C17.5858 15.8414 18.8229 15.0437 20.1869 14.5375C20.9619 14.2625 21.7619 14.0875 22.5369 13.875L22.9619 13.75C22.859 13.7036 22.7492 13.674 22.6369 13.6625C22.1369 13.6625 21.6369 13.6625 21.1369 13.6625C19.9231 13.7636 18.7438 14.117 17.6744 14.7C17.6346 14.7397 17.5806 14.762 17.5244 14.762C17.4682 14.762 17.4142 14.7397 17.3744 14.7C17.1119 14.475 17.0994 14.45 17.2994 14.175C17.3758 14.0655 17.4593 13.9611 17.5494 13.8625C18.2291 13.1063 19.0891 12.5344 20.0494 12.2C21.1512 11.8177 22.2986 11.5823 23.4619 11.5L24.2744 11.4V11.25L23.8994 11.1375C21.9989 10.8141 20.0475 10.9731 18.2244 11.6C17.186 11.9339 16.2352 12.4954 15.4415 13.2437C14.6478 13.992 14.0313 14.908 13.6369 15.925L13.4869 16.275L13.3494 16.25L13.1994 15.9125C12.596 14.2965 11.4161 12.9608 9.88691 12.1625C7.73665 11.0804 5.29078 10.7335 2.92441 11.175C2.83019 11.1895 2.73792 11.2146 2.64941 11.25H2.82441C3.41191 11.325 3.99941 11.375 4.57441 11.4625C5.78813 11.6028 6.96133 11.9853 8.02441 12.5875C8.67081 12.9967 9.21066 13.5537 9.59941 14.2125C9.59941 14.275 9.67441 14.4 9.59941 14.45C9.57829 14.5039 9.54499 14.5522 9.50212 14.591C9.45924 14.6299 9.40795 14.6583 9.35226 14.674C9.29657 14.6898 9.238 14.6924 9.18112 14.6817C9.12424 14.6711 9.07061 14.6474 9.02441 14.6125H8.88691C7.442 13.8823 5.82725 13.5541 4.21191 13.6625C4.07914 13.6724 3.94856 13.7019 3.82441 13.75L4.29941 13.875C5.72936 14.1177 7.1023 14.622 8.34941 15.3625C9.05564 15.7897 9.71 16.2973 10.2994 16.875C10.3619 16.9375 10.4369 17.05 10.4244 17.1125C10.4044 17.1705 10.3722 17.2234 10.3298 17.2677C10.2875 17.3121 10.236 17.3467 10.179 17.3692C10.122 17.3918 10.0608 17.4018 9.99961 17.3984C9.93841 17.3951 9.87864 17.3786 9.82441 17.35C9.24768 17.0129 8.6179 16.7762 7.96191 16.65C7.34387 16.5177 6.70056 16.5698 6.11191 16.8C6.01472 16.8196 5.92388 16.863 5.84754 16.9262C5.77119 16.9895 5.71171 17.0707 5.67441 17.1625L6.57441 17.2875C7.89576 17.3987 9.17814 17.7907 10.3358 18.4374C11.4934 19.0841 12.4995 19.9706 13.2869 21.0375L13.4494 21.225L13.6494 20.975C14.1556 20.2731 14.767 19.6533 15.4619 19.1375C16.8772 18.0817 18.5544 17.4332 20.3119 17.2625L21.1869 17.175ZM22.5119 6.81253H22.5869C22.5994 6.62941 22.5994 6.44565 22.5869 6.26253C22.5702 6.11834 22.509 5.98293 22.4119 5.87503C21.7244 5.26253 21.0244 4.62503 20.3244 4.06253C20.094 3.85171 19.793 3.7348 19.4807 3.7348C19.1683 3.7348 18.8673 3.85171 18.6369 4.06253C17.9869 4.58753 17.3244 5.10003 16.6869 5.63753C16.5119 5.76253 16.3994 5.78753 16.2244 5.63753C15.6244 5.06253 14.9744 4.50003 14.3744 3.95003C14.2721 3.84073 14.1353 3.77009 13.9869 3.75003C13.6123 3.72504 13.2365 3.72504 12.8619 3.75003C12.7421 3.75141 12.6268 3.79577 12.5369 3.87503C11.8744 4.43753 11.2869 5.02503 10.5744 5.61253C10.4369 5.73753 10.3494 5.72503 10.2119 5.61253L8.09941 3.92503C7.99102 3.83624 7.86208 3.77607 7.72441 3.75003C7.46831 3.69265 7.20158 3.70406 6.9513 3.7831C6.70103 3.86213 6.47612 4.00597 6.29941 4.20003C6.23758 4.2685 6.16597 4.32747 6.08691 4.37503L4.59941 5.68753C4.48797 5.771 4.40151 5.8834 4.34941 6.01253C4.33069 6.24966 4.33069 6.4879 4.34941 6.72503L6.59941 5.00003C6.59941 5.10003 6.59941 5.15003 6.59941 5.20003C6.59941 5.80003 6.59941 6.45003 6.59941 7.02503C6.60638 7.14082 6.58223 7.25636 6.52948 7.35966C6.47673 7.46297 6.39729 7.55028 6.29941 7.61253L2.83691 10.4375C2.77694 10.4809 2.72239 10.5312 2.67441 10.5875C2.71131 10.5971 2.75002 10.5971 2.78691 10.5875C3.44941 10.5125 4.09941 10.45 4.74941 10.3625C4.8836 10.3452 5.0097 10.2887 5.11191 10.2C5.72441 9.68753 6.36191 9.15003 6.93691 8.62503L7.38691 8.25003L10.3994 11.3375L10.6369 11.1375L13.2119 8.63753C13.4244 8.43753 13.4369 8.43753 13.6494 8.63753L15.9619 10.8625C16.1244 11.025 16.2619 11.2125 16.4244 11.3875L16.6619 11.1625L19.2744 8.48753C19.4994 8.26253 19.4994 8.26253 19.7244 8.48753L21.7744 10.2375C21.9057 10.3358 22.0613 10.3963 22.2244 10.4125L23.2744 10.4875L24.1744 10.6375C24.1071 10.525 24.0179 10.4272 23.9119 10.35L20.4744 7.50003C20.3951 7.44056 20.331 7.36306 20.2876 7.27395C20.2441 7.18484 20.2224 7.08666 20.2244 6.98753C20.2244 6.41253 20.2244 5.82503 20.2244 5.25003C20.2244 5.16253 20.2244 5.07503 20.2244 4.91253L22.5119 6.81253ZM10.7244 11.9C11.8348 12.6599 12.765 13.6541 13.4494 14.8125C14.1178 13.6502 15.041 12.6544 16.1494 11.9L13.4369 9.26253L10.7244 11.9ZM14.7244 1.90003C14.7244 1.56851 14.5927 1.25056 14.3583 1.01614C14.1239 0.781723 13.8059 0.650027 13.4744 0.650027C13.3032 0.632764 13.1302 0.651045 12.9664 0.703725C12.8026 0.756406 12.6514 0.842351 12.5223 0.956176C12.3932 1.07 12.289 1.20926 12.2162 1.36522C12.1435 1.52118 12.1037 1.69048 12.0994 1.86253C12.099 2.20006 12.2287 2.52477 12.4615 2.76919C12.6943 3.01361 13.0123 3.15895 13.3494 3.17503C13.5281 3.19317 13.7085 3.17261 13.8785 3.11475C14.0485 3.05689 14.204 2.96309 14.3344 2.83973C14.4649 2.71637 14.5673 2.56635 14.6346 2.39988C14.7019 2.23341 14.7325 2.0544 14.7244 1.87503V1.90003ZM6.11191 1.90003C6.11191 2.23155 6.24361 2.54949 6.47803 2.78391C6.71245 3.01833 7.03039 3.15003 7.36191 3.15003C7.69343 3.15003 8.01138 3.01833 8.2458 2.78391C8.48022 2.54949 8.61191 2.23155 8.61191 1.90003C8.61191 1.56851 8.48022 1.25056 8.2458 1.01614C8.01138 0.781723 7.69343 0.650027 7.36191 0.650027C7.03468 0.649962 6.72047 0.778221 6.48675 1.00726C6.25304 1.2363 6.11846 1.54786 6.11191 1.87503V1.90003ZM20.7744 1.90003C20.7744 1.56851 20.6427 1.25056 20.4083 1.01614C20.1739 0.781723 19.8559 0.650027 19.5244 0.650027C19.1929 0.650027 18.8749 0.781723 18.6405 1.01614C18.4061 1.25056 18.2744 1.56851 18.2744 1.90003C18.2744 2.23155 18.4061 2.54949 18.6405 2.78391C18.8749 3.01833 19.1929 3.15003 19.5244 3.15003C19.8559 3.15003 20.1739 3.01833 20.4083 2.78391C20.6427 2.54949 20.7744 2.23155 20.7744 1.90003ZM19.5244 9.12503L17.5619 11.0875V11.15C18.6295 10.6893 19.7747 10.4348 20.9369 10.4V10.3375L19.5244 9.12503ZM5.93691 10.375V10.45C7.10317 10.4743 8.25362 10.7248 9.32441 11.1875L7.37441 9.08753L5.93691 10.375Z" fill="#9D2C49"/>
<path d="M20.9115 29.3125C20.6115 29.8875 20.0865 29.925 19.524 29.9C19.0815 29.9041 18.6391 29.8833 18.199 29.8375C17.8934 29.8164 17.6061 29.6838 17.3918 29.4649C17.1775 29.246 17.0511 28.956 17.0365 28.65C17.0365 28.55 17.0365 28.4625 17.0365 28.3375L16.324 28.9C15.2081 29.7263 13.8103 30.0769 12.4365 29.875C12.0374 29.8262 11.6691 29.6354 11.399 29.3375C11.099 29.05 10.824 28.75 10.549 28.45C10.549 28.45 10.474 28.3375 10.4365 28.2875C10.4365 28.2875 10.4365 28.3875 10.4365 28.4375C10.3893 28.7764 10.2312 29.0901 9.98705 29.3298C9.74285 29.5695 9.42621 29.7216 9.0865 29.7625C7.87667 29.9685 6.64419 30.0063 5.424 29.875C5.14567 29.8683 4.86897 29.8305 4.599 29.7625C4.37149 29.6727 4.16467 29.5375 3.99117 29.365C3.81768 29.1926 3.68114 28.9867 3.58989 28.7597C3.49865 28.5328 3.45461 28.2896 3.46048 28.0451C3.46634 27.8006 3.52198 27.5598 3.624 27.3375C3.7126 27.1121 3.83482 26.9014 3.9865 26.7125C3.9865 26.6375 4.1865 26.6375 4.2865 26.6C4.33292 26.6986 4.36249 26.8042 4.374 26.9125C4.36067 27.0029 4.33545 27.0912 4.299 27.175C4.2354 27.3263 4.21001 27.4909 4.22507 27.6543C4.24012 27.8177 4.29517 27.9749 4.38534 28.112C4.47551 28.2491 4.59804 28.362 4.74212 28.4405C4.8862 28.5191 5.0474 28.561 5.2115 28.5625C6.274 28.5625 7.3365 28.5625 8.4115 28.5625C8.70587 28.5601 8.99917 28.5266 9.2865 28.4625C9.699 28.3625 9.7865 28.125 9.5615 27.7625C9.19753 27.1761 8.72691 26.6631 8.174 26.25C8.10168 26.2125 8.04538 26.15 8.01551 26.0742C7.98565 25.9984 7.98422 25.9143 8.0115 25.8375C8.0865 25.525 8.124 25.2 8.199 24.9C8.22862 24.8236 8.28097 24.7582 8.349 24.7125L11.8865 23.4L12.199 23.325C12.099 23.7375 12.024 24.1 11.924 24.4625C11.924 24.525 11.7865 24.575 11.7115 24.6L9.124 25.4875H9.0365C9.0365 25.4875 9.0365 25.55 9.0365 25.575L11.4615 28.075C11.6104 28.2342 11.7936 28.3574 11.9971 28.4354C12.2007 28.5134 12.4193 28.544 12.6365 28.525C13.3385 28.5565 14.0419 28.5188 14.7365 28.4125C15.404 28.2118 16.0395 27.9172 16.624 27.5375C16.0603 27.3032 15.4591 27.1719 14.849 27.15C14.6774 27.1714 14.514 27.2359 14.374 27.3375C14.2365 27.4375 14.124 27.575 13.9865 27.675C13.849 27.775 13.6865 27.675 13.6865 27.5375C13.6904 27.4119 13.7202 27.2885 13.774 27.175C13.924 26.925 14.074 26.6625 14.249 26.425C14.4031 26.2238 14.6148 26.0742 14.8559 25.9961C15.097 25.918 15.3562 25.915 15.599 25.9875C16.124 26.125 16.6365 26.2875 17.1615 26.4125C17.6865 26.5375 18.124 26.5875 18.6115 26.675H18.949C18.8615 26.875 18.774 27.0375 18.7115 27.225C18.649 27.4125 18.424 27.825 17.9865 27.775C17.8865 27.775 17.7865 27.775 17.6865 27.8375C17.5865 27.9 17.474 27.9875 17.574 28.1C17.6734 28.2335 17.8074 28.3372 17.9615 28.4C18.1385 28.4604 18.3245 28.49 18.5115 28.4875H20.049C20.449 28.4875 20.499 28.4875 20.5115 28.0375C20.5081 27.8522 20.542 27.668 20.611 27.4959C20.68 27.3239 20.7828 27.1674 20.9133 27.0357C21.0438 26.904 21.1994 26.7999 21.3708 26.7293C21.5423 26.6588 21.7261 26.6233 21.9115 26.625C22.1108 26.6311 22.3051 26.6884 22.4758 26.7913C22.6466 26.8941 22.788 27.0392 22.8865 27.2125C23.2479 27.7346 23.4119 28.3682 23.349 29C23.3017 29.2003 23.2057 29.3859 23.0694 29.5402C22.9332 29.6945 22.761 29.8127 22.5681 29.8844C22.3751 29.9562 22.1675 29.9792 21.9635 29.9513C21.7596 29.9235 21.5657 29.8458 21.399 29.725C21.2266 29.5996 21.0637 29.4617 20.9115 29.3125ZM22.674 28.4625C22.6475 28.0838 22.4829 27.728 22.2115 27.4625C22.1661 27.3991 22.0986 27.3549 22.0222 27.3387C21.9459 27.3225 21.8663 27.3355 21.799 27.375C21.7464 27.4155 21.7027 27.4664 21.6704 27.5244C21.6382 27.5824 21.6181 27.6465 21.6115 27.7125C21.5771 28.0722 21.6749 28.4321 21.8865 28.725C21.9349 28.824 22.0163 28.9031 22.1166 28.9487C22.217 28.9943 22.3301 29.0036 22.4365 28.975C22.649 28.8875 22.6615 28.75 22.674 28.4625Z" fill="#9D2C49"/>
<path d="M18.6373 5.0625C18.6373 5.1625 18.6373 5.2125 18.6373 5.275C18.6373 5.925 18.6373 6.525 18.6373 7.225C18.6267 7.34507 18.5786 7.45876 18.4998 7.55L16.6998 9.375C16.4998 9.5625 16.4873 9.5625 16.2998 9.375L14.5123 7.6125C14.4458 7.55373 14.3941 7.48006 14.3616 7.3975C14.329 7.31495 14.3164 7.22585 14.3248 7.1375V5.3375C14.3248 5.2625 14.3248 5.1875 14.3248 5.0625C14.4173 5.10808 14.5053 5.1625 14.5873 5.225C15.1623 5.65 15.7248 6.075 16.2873 6.475C16.3119 6.50191 16.3418 6.5234 16.3752 6.5381C16.4086 6.5528 16.4446 6.56039 16.4811 6.56039C16.5175 6.56039 16.5536 6.5528 16.5869 6.5381C16.6203 6.5234 16.6502 6.50191 16.6748 6.475L18.3498 5.225C18.4366 5.15618 18.5336 5.10135 18.6373 5.0625ZM14.8873 6.1875V7.1375C14.8873 7.1375 14.8873 7.2375 14.9623 7.275L16.3248 8.6125C16.3399 8.63316 16.3596 8.64997 16.3825 8.66156C16.4053 8.67315 16.4305 8.67919 16.4561 8.67919C16.4816 8.67919 16.5069 8.67315 16.5297 8.66156C16.5525 8.64997 16.5722 8.63316 16.5873 8.6125L17.9748 7.275C17.9748 7.275 18.0623 7.1875 18.0623 7.1375V6.25L17.0998 6.925C16.5248 7.35 16.5248 7.3625 15.9498 6.925L14.8873 6.1875Z" fill="#9D2C49"/>
<path d="M8.27488 5L9.12488 5.625C9.49988 5.9125 9.87488 6.2 10.2374 6.5C10.2618 6.52494 10.291 6.54476 10.3232 6.55829C10.3554 6.57182 10.39 6.57879 10.4249 6.57879C10.4598 6.57879 10.4944 6.57182 10.5266 6.55829C10.5588 6.54476 10.5879 6.52494 10.6124 6.5L12.2999 5.2125C12.3837 5.1564 12.4715 5.10628 12.5624 5.0625C12.5624 5.1625 12.5624 5.2375 12.5624 5.3C12.5624 5.9375 12.5624 6.55 12.5624 7.1875C12.5667 7.31959 12.5222 7.44864 12.4374 7.55C11.8499 8.15 11.1874 8.8 10.6374 9.3375C10.3999 9.575 10.3999 9.5625 10.1624 9.3375L8.41238 7.575C8.35621 7.52479 8.31152 7.46307 8.28132 7.39405C8.25113 7.32504 8.23614 7.25033 8.23738 7.175C8.23738 6.5625 8.23738 5.925 8.23738 5.325C8.24988 5.25 8.26238 5.175 8.27488 5ZM8.83738 6.25C8.83738 6.6 8.83738 6.875 8.83738 7.1625C8.85189 7.24615 8.89631 7.32167 8.96238 7.375L10.2124 8.625C10.3249 8.7375 10.3999 8.75 10.5249 8.625L11.7249 7.5C11.8706 7.33075 11.9684 7.12554 12.008 6.90571C12.0475 6.68587 12.0275 6.45945 11.9499 6.25L11.7749 6.3625C11.3874 6.65 10.9999 6.925 10.6249 7.225C10.5981 7.25259 10.566 7.27453 10.5306 7.28951C10.4952 7.30449 10.4571 7.31221 10.4186 7.31221C10.3802 7.31221 10.3421 7.30449 10.3067 7.28951C10.2712 7.27453 10.2392 7.25259 10.2124 7.225C9.93738 7 9.64988 6.8 9.36238 6.5875L8.83738 6.25Z" fill="#9D2C49"/>
</g>
<defs>
<clipPath id="clip0_3525_4141">
<rect width="25.15" height="30" fill="white" transform="translate(0.849609)"/>
</clipPath>
</defs>
</svg>
