<svg width="143" height="67" viewBox="0 0 143 67" fill="none" xmlns="http://www.w3.org/2000/svg">
<path fill-rule="evenodd" clip-rule="evenodd" d="M51.3415 26.1877V12H54.9134V29.7658H41.3942V42.2477H27.7297V54.7088H10.0156V51.1098H24.1786V38.6696H37.8223V26.1877H51.3415ZM71.6926 19.2395H64.7357V14.8708H72.1909V12H61.683V29.745H64.7149V22.1103H71.6926V19.2395ZM76.8427 29.745C77.3826 29.9531 77.9434 30.0571 78.5041 30.0571C79.1271 30.0571 79.6255 29.9531 80.1239 29.7034C80.56 29.4954 80.9338 29.2666 81.2245 29.0169C81.5775 28.7465 81.8683 28.3928 82.1175 27.9976V29.745H84.9625V17.7209H81.9098V25.73C81.7229 26.0421 81.5152 26.2709 81.2868 26.479C81.0791 26.6662 80.8507 26.8534 80.5392 26.999C80.2485 27.1447 79.9162 27.2279 79.5216 27.2279C78.7533 27.2279 78.1718 27.0614 77.7565 26.6454C77.3411 26.2293 77.1335 25.5844 77.1335 24.6899V17.7209H74.1015V25.5012C74.1015 26.2293 74.2053 26.8742 74.4545 27.4359C74.7037 27.9768 75.0153 28.4552 75.4306 28.8505C75.8459 29.2666 76.3028 29.537 76.8427 29.745ZM89.3028 17.7209H86.9561V20.4877H89.3235V25.8133C89.3235 26.4582 89.4274 27.0406 89.635 27.5607C89.8635 28.06 90.1542 28.5385 90.5073 28.8921C90.8811 29.2874 91.3172 29.5578 91.7948 29.7658C92.314 29.9739 92.8539 30.0779 93.4354 30.0779C93.8715 30.0779 94.266 30.0363 94.6191 29.9531C94.9513 29.8907 95.2628 29.8075 95.5121 29.7034C95.8236 29.5786 96.0728 29.433 96.3012 29.2874L95.2006 26.791L94.806 27.0198C94.6814 27.0822 94.536 27.1239 94.3906 27.1655C94.2453 27.1863 94.0999 27.2071 93.913 27.2071C93.7261 27.2071 93.5184 27.1655 93.3315 27.1239C93.1239 27.0614 92.9577 26.9574 92.8124 26.8118C92.667 26.6662 92.5424 26.4582 92.4593 26.2293C92.3763 25.9797 92.3347 25.7092 92.3347 25.314V20.4669H95.9482V17.7209H92.3555V14.1635H89.3028V17.7209ZM100.87 29.745C101.41 29.9531 101.971 30.0571 102.531 30.0571C103.154 30.0571 103.673 29.9531 104.172 29.7034C104.608 29.4954 104.982 29.2666 105.272 29.0169C105.625 28.7465 105.916 28.3928 106.165 27.9976V29.745H109.01V17.7209H105.958V25.73C105.771 26.0421 105.563 26.2709 105.335 26.479C105.127 26.6662 104.899 26.8534 104.587 26.999C104.296 27.1447 103.964 27.2279 103.57 27.2279C102.801 27.2279 102.22 27.0614 101.804 26.6454C101.389 26.2293 101.181 25.5844 101.181 24.6899V17.7209H98.1287V25.5012C98.1287 26.2293 98.2325 26.8742 98.4817 27.4359C98.7309 27.9768 99.0424 28.4552 99.4577 28.8505C99.8731 29.2666 100.33 29.537 100.87 29.745ZM118.667 17.4712C118.418 17.4504 118.169 17.4296 117.878 17.4296C117.338 17.4296 116.86 17.5544 116.445 17.7209C116.05 17.9705 115.718 18.1993 115.427 18.449C115.116 18.7402 114.867 19.1147 114.638 19.4683V17.7209H111.731V29.7658H114.763V21.9023C114.971 21.5902 115.178 21.299 115.427 21.0702C115.635 20.8621 115.926 20.6957 116.258 20.5085C116.59 20.342 117.006 20.2588 117.463 20.2588C117.649 20.2588 117.857 20.2796 118.044 20.3004C118.14 20.3125 118.236 20.3384 118.324 20.3621C118.388 20.3795 118.448 20.3957 118.501 20.4045C118.586 20.4258 118.66 20.4525 118.726 20.4763C118.789 20.4991 118.845 20.5191 118.895 20.5293L119.975 17.7833C119.899 17.7605 119.824 17.7404 119.747 17.7201C119.613 17.6849 119.476 17.6488 119.332 17.596C119.211 17.5839 119.09 17.5577 118.96 17.5297C118.868 17.5096 118.771 17.4886 118.667 17.4712ZM128.365 17.8873C127.659 17.5752 126.87 17.4296 126.039 17.4296C125.188 17.4296 124.399 17.596 123.713 17.9705C122.966 18.2825 122.322 18.7402 121.782 19.3019C121.242 19.8636 120.827 20.5293 120.515 21.299C120.204 22.0687 120.058 22.9008 120.058 23.7746C120.058 24.6483 120.204 25.4804 120.536 26.2501C120.868 27.0198 121.304 27.6855 121.886 28.2472C122.488 28.8089 123.153 29.2458 123.942 29.5786C124.71 29.9115 125.562 30.0571 126.475 30.0571C127.181 30.0571 127.867 29.9947 128.448 29.8075C129.05 29.641 129.549 29.4538 129.964 29.225C130.442 28.9753 130.878 28.6633 131.272 28.3512L129.756 26.0629C129.507 26.2917 129.217 26.4998 128.884 26.687C128.65 26.8314 128.369 26.9288 128.027 27.0472C127.975 27.0652 127.922 27.0838 127.867 27.103C127.451 27.2487 126.994 27.2903 126.475 27.2903C126.018 27.2903 125.582 27.2071 125.188 27.0614C124.814 26.9158 124.482 26.7078 124.191 26.479C123.879 26.2293 123.651 25.9797 123.464 25.6884C123.256 25.3764 123.153 25.1268 123.111 24.8355H132.062C132.082 24.586 132.082 24.378 132.082 24.17V24.1698V23.6913C132.082 22.776 131.916 21.9231 131.605 21.1534C131.272 20.3836 130.836 19.7179 130.296 19.1771C129.756 18.6362 129.113 18.1993 128.365 17.8873ZM128.843 21.7983C128.967 22.1103 129.03 22.3807 129.05 22.6304V22.6512H123.132C123.132 22.3599 123.215 22.0687 123.34 21.7983C123.464 21.5278 123.672 21.2366 123.9 21.0077C124.129 20.7789 124.44 20.5709 124.793 20.4253C125.146 20.2796 125.582 20.1964 126.06 20.1964C126.538 20.1964 126.974 20.2796 127.368 20.4253C127.721 20.5709 128.054 20.7789 128.282 21.0077C128.531 21.2366 128.718 21.507 128.843 21.7983ZM64.7149 36.0068H61.683H61.6622V54.7088H72.2533V51.8379H64.7149V36.0068ZM81.5152 42.8302C80.8092 42.5181 80.02 42.3725 79.1894 42.3725C78.3172 42.3725 77.528 42.5181 76.8635 42.9134C76.1159 43.2255 75.4721 43.6831 74.9322 44.2448C74.3922 44.8065 73.9769 45.4722 73.6654 46.2419C73.3539 47.0116 73.2085 47.8437 73.2085 48.7175C73.2085 49.5912 73.3539 50.4233 73.6862 51.193C74.0184 51.9627 74.4545 52.6284 75.036 53.1901C75.6383 53.7518 76.3028 54.1887 77.0919 54.5215C77.8603 54.8544 78.7117 55 79.6255 55C80.3315 55 81.0168 54.9376 81.5983 54.7504C82.2005 54.5839 82.699 54.3967 83.1143 54.1679C83.5919 53.9182 84.028 53.6062 84.4226 53.2941L82.9066 51.0058C82.6574 51.2346 82.3459 51.4427 82.0344 51.6299C81.7644 51.7963 81.4322 51.9211 81.0168 52.046C80.6015 52.1916 80.1446 52.2332 79.6255 52.2332C79.1686 52.2332 78.7325 52.15 78.3379 52.0044C77.9641 51.8587 77.6319 51.6507 77.3411 51.4219C77.0296 51.1722 76.8012 50.9226 76.6143 50.6314C76.5991 50.6028 76.5841 50.5748 76.5693 50.5473C76.4224 50.2733 76.299 50.043 76.2613 49.7784H85.2117C85.2325 49.5288 85.2325 49.3208 85.2325 49.1127V48.6343C85.2325 47.7189 85.0664 46.866 84.7549 46.0963C84.4226 45.3266 83.9865 44.6609 83.4466 44.12C82.9066 43.5583 82.2628 43.1422 81.5152 42.8302ZM81.9929 46.7204C82.1175 47.0324 82.1798 47.3029 82.2006 47.5525V47.5733H76.282C76.282 47.2821 76.3651 47.0116 76.4897 46.7204C76.6143 46.4083 76.8219 46.1587 77.0504 45.9299C77.2788 45.6802 77.5903 45.493 77.9434 45.3474C78.3172 45.2017 78.7325 45.1185 79.2101 45.1185C79.6878 45.1185 80.1239 45.2017 80.5184 45.3474C80.8715 45.493 81.183 45.6802 81.4322 45.9299C81.6814 46.1587 81.8683 46.4291 81.9929 46.7204ZM96.322 54.6672H99.1462V42.7678H96.322V44.328C96.0728 43.9536 95.782 43.6623 95.4497 43.3711C95.1798 43.1422 94.7852 42.9342 94.3284 42.7262C93.8715 42.5389 93.3108 42.4349 92.6878 42.4349C91.9194 42.4349 91.1926 42.5806 90.4657 42.8926C89.7596 43.2046 89.1366 43.6415 88.5967 44.2032C88.0568 44.7441 87.6207 45.4098 87.3092 46.1795C86.9769 46.9492 86.8315 47.8021 86.8315 48.7175C86.8315 49.6328 86.9977 50.4857 87.3092 51.2554C87.6414 52.0044 88.0568 52.6701 88.5967 53.2317C89.1366 53.7934 89.7389 54.2303 90.4657 54.5423C91.1718 54.8544 91.9194 55 92.6878 55C93.3315 55 93.8923 54.9168 94.3491 54.7088C94.806 54.5215 95.1798 54.2927 95.4705 54.0639C95.8443 53.7726 96.0935 53.4606 96.322 53.1069V54.6672ZM95.4082 46.0131C95.6782 46.2835 95.9066 46.5539 96.0935 46.866V50.4233C95.8859 50.7562 95.699 51.0474 95.4082 51.2762C95.1798 51.5051 94.8891 51.6715 94.536 51.8587C94.183 52.0252 93.7469 52.1084 93.2692 52.1084C92.7501 52.1084 92.2932 52.046 91.8779 51.8587C91.4625 51.6715 91.1095 51.4219 90.8188 51.1098C90.5073 50.7978 90.2996 50.4025 90.1542 50.0073C90.0088 49.612 89.9258 49.1335 89.9258 48.6551C89.9258 48.1766 90.0088 47.7189 90.1542 47.3029C90.2996 46.866 90.528 46.5123 90.8188 46.2003C91.1095 45.8674 91.4625 45.6386 91.8779 45.4514C92.2932 45.3058 92.7501 45.2017 93.2692 45.2017C93.7676 45.2017 94.183 45.2642 94.536 45.4514C94.8683 45.6178 95.1798 45.805 95.4082 46.0131ZM108.74 42.4141C108.491 42.3933 108.201 42.3725 107.951 42.3725C107.391 42.3725 106.934 42.4765 106.518 42.7054C106.49 42.7233 106.462 42.7411 106.434 42.7589C106.071 42.988 105.732 43.2018 105.501 43.4335C105.189 43.7039 104.919 44.0784 104.712 44.432V42.6846H101.846V54.7088H104.857V46.8452C105.065 46.5331 105.272 46.2419 105.522 46.0131C105.729 45.805 106.02 45.6178 106.352 45.4514C106.685 45.285 107.1 45.2017 107.557 45.2017C107.744 45.2017 107.951 45.2225 108.138 45.2434C108.234 45.2554 108.33 45.2813 108.418 45.305C108.483 45.3224 108.543 45.3386 108.595 45.3474C108.68 45.3687 108.754 45.3954 108.82 45.4193C108.883 45.442 108.939 45.462 108.99 45.4722L110.049 42.7262C109.973 42.7034 109.897 42.6833 109.82 42.663C109.687 42.6278 109.55 42.5918 109.405 42.5389C109.197 42.4973 108.99 42.4557 108.74 42.4141ZM119.664 42.6846C119.124 42.4765 118.563 42.3725 118.002 42.3725C117.359 42.3725 116.819 42.4765 116.341 42.747C115.905 42.9966 115.531 43.2254 115.24 43.4751C114.867 43.7455 114.617 44.12 114.389 44.4736V42.7262H111.565V54.7504H114.576V46.8036C114.763 46.4915 114.971 46.2627 115.199 46.0339C115.407 45.8466 115.635 45.6802 115.947 45.493C116.237 45.3266 116.57 45.2434 116.964 45.2434C117.649 45.2434 118.21 45.4306 118.667 45.8258C119.124 46.2003 119.352 46.8244 119.352 47.6981V54.7088H122.405V46.9284C122.405 46.2003 122.28 45.5554 122.052 44.9937C121.803 44.4528 121.491 43.9744 121.076 43.5791C120.661 43.163 120.204 42.8926 119.664 42.6846Z" fill="#070D04"/>
</svg>
