<svg width="140" height="67" viewBox="0 0 140 67" fill="none" xmlns="http://www.w3.org/2000/svg">
<path fill-rule="evenodd" clip-rule="evenodd" d="M71.0439 26.9115C71.0439 26.61 71.405 18.2686 72.95 16.4797C75.5785 13.4849 86.9551 12.5 86.9551 12.5C86.9551 12.5 83.504 17.1832 77.7454 22.2886C71.9869 27.3939 71.0439 26.9115 71.0439 26.9115ZM69.3413 26.9115C69.3413 26.61 68.9801 18.2686 67.4352 16.4797C64.8468 13.4849 53.4301 12.5201 53.4301 12.5201C53.4301 12.5201 56.8811 17.1832 62.6397 22.2886C68.3982 27.3939 69.3413 26.9115 69.3413 26.9115ZM28.3893 42.8505V50.0462H25.3194V43.0515C25.3194 41.6446 24.5971 40.8205 23.3531 40.8205C21.9686 40.8205 21.1861 41.7652 21.1861 43.4736V50.0462H18.1162V43.0515C18.1162 41.6446 17.3939 40.8205 16.1699 40.8205C14.8256 40.8205 14.0029 41.7652 14.0029 43.4736V50.0462H10.9531V37.9864H14.023V39.5944C14.6852 38.5291 15.7887 38.0266 17.2735 38.0266C18.6981 38.0266 19.7615 38.5894 20.4437 39.715C21.2262 38.5894 22.39 38.0266 23.955 38.0266C26.6437 38.0065 28.3893 39.916 28.3893 42.8505ZM34.4252 38.0065H31.3553V50.0664H34.4252V38.0065ZM32.8602 33.3032C31.9172 33.3233 31.1748 34.0871 31.1748 35.0318C31.1948 35.9564 31.9573 36.7001 32.8803 36.7202H32.9003C33.8433 36.7001 34.5858 35.9363 34.5858 34.9916C34.5657 34.0469 33.8032 33.2831 32.8602 33.3032ZM47.3493 39.313C48.1719 40.1773 48.6134 41.3632 48.6134 42.8907V50.0663H45.6438V43.2324C45.6438 41.6647 44.7007 40.8205 43.2762 40.8205C41.7111 40.8205 40.6477 41.7853 40.6477 43.7349V50.0462H37.6781V37.9864H40.6477V39.6547C41.4302 38.5693 42.5739 38.0266 44.159 38.0266C45.4432 38.0065 46.5266 38.4286 47.3493 39.313ZM77.0243 38.0066H73.6735L70.8043 46.569L67.9752 38.0066H64.6645L69.1389 50.0664H72.57L77.0243 38.0066ZM83.8428 47.5338C84.7858 47.5338 85.5683 47.2323 86.1703 46.6293C86.8123 45.9861 87.1534 45.1219 87.1133 44.2375C87.1133 43.2727 86.8123 42.4687 86.1703 41.8657C85.5683 41.2225 84.7256 40.8808 83.8428 40.921C82.8998 40.921 82.1172 41.2225 81.5153 41.8657C80.9133 42.4687 80.6124 43.2727 80.6124 44.2375C80.6124 45.2023 80.9133 46.0062 81.5153 46.6293C82.0972 47.2524 82.8797 47.5338 83.8428 47.5338ZM87.0331 38.0066H90.1029V50.0664H87.0331V48.7197C86.1703 49.8654 84.8861 50.4483 83.2208 50.4483C81.6557 50.4483 80.3114 49.8654 79.1878 48.6594C78.0641 47.4534 77.5224 45.9861 77.5224 44.2375C77.5224 42.4888 78.0842 41.0617 79.1878 39.8356C80.2913 38.6296 81.6357 38.0267 83.2208 38.0267C84.846 38.0267 86.1703 38.5894 87.0331 39.7552V38.0066ZM110.856 40.7602C112.24 40.7602 113.424 41.5039 113.765 43.1319H107.766C108.147 41.5843 109.25 40.7602 110.856 40.7602ZM111.157 47.6343C109.351 47.6343 108.247 46.9509 107.846 45.4233L116.694 45.4434C116.735 45.0213 116.775 44.5992 116.775 44.1771C116.775 42.4083 116.173 40.9612 115.089 39.7552C114.006 38.5492 112.581 37.9663 110.856 37.9663C109.05 37.9663 107.565 38.5693 106.401 39.7552C105.238 40.9411 104.656 42.3681 104.656 44.1771C104.656 45.9861 105.238 47.4534 106.421 48.6393C107.605 49.8251 109.15 50.408 111.096 50.408C113.344 50.408 115.069 49.5437 116.213 47.8755L113.785 46.4685C113.203 47.2524 112.3 47.6343 111.157 47.6343ZM126.26 38.0266H129.491L125.237 49.7849C124.013 53.1617 122.027 54.6491 119.057 54.4883V51.6542C120.682 51.6743 121.545 51.011 122.127 49.3829L117.311 38.0266H120.622L123.692 45.9057L126.26 38.0266ZM93.275 35.6548C93.275 35.6548 93.1545 33.3233 96.2445 32.9414V50.0462H93.275V35.6548ZM59.0856 46.5087C57.7814 47.7549 55.7349 47.7549 54.4307 46.5087C53.8287 45.8856 53.5277 45.0816 53.5277 44.1168C53.5277 43.152 53.8287 42.348 54.4307 41.7451C55.0527 41.122 55.8954 40.7803 56.7782 40.8004C57.7212 40.8004 58.5038 41.1019 59.1057 41.7451C59.7077 42.348 60.0086 43.152 60.0086 44.1168C59.9886 45.0816 59.6876 45.8856 59.0856 46.5087ZM62.8979 32.9615V32.9213C59.828 33.3233 59.9283 35.6548 59.9283 35.6548V39.6145C58.9652 38.4688 57.8015 37.8859 56.1562 37.8859C54.5912 37.8859 53.2268 38.4889 52.1232 39.6949C51.0197 40.9009 50.4579 42.348 50.4579 44.0967C50.4579 45.8655 51.0197 47.3127 52.1433 48.5187C53.2669 49.7246 54.5912 50.3075 56.1763 50.3075C57.8015 50.3075 59.0054 49.7447 59.9484 48.579V50.0261H62.918V32.9615H62.8979ZM99.5015 35.6548C99.5015 35.6548 99.4011 33.3233 102.471 32.9414V50.0462H99.5015V35.6548Z" fill="#070D04"/>
</svg>
