<svg width="136" height="67" viewBox="0 0 136 67" fill="none" xmlns="http://www.w3.org/2000/svg">
<path fill-rule="evenodd" clip-rule="evenodd" d="M19.7736 17.1329L28.6293 22.2658V17.1329L19.7736 12L10.918 17.1329V22.2658L19.7736 17.1329ZM15.5564 37.8775V26.5657H10.8965V38.2648C10.8965 40.9185 11.7473 42.9329 13.3908 44.3468C15.0343 45.7608 17.1419 46.4581 19.7135 46.4581C22.3045 46.4581 24.412 45.7608 26.0942 44.3468C27.7764 42.9135 28.6272 40.841 28.6272 38.1486V26.5657H23.9867V37.8387C23.9867 40.7635 21.8404 42.2162 19.7715 42.2162C17.7413 42.2162 15.5564 40.8022 15.5564 37.8775ZM72.2095 42.623L68.7678 40.6279C67.3756 41.8675 65.7708 42.4874 63.9339 42.4874C60.6082 42.4874 58.3653 40.5892 58.1139 37.645H73.1183C73.1183 37.645 73.215 36.6959 73.215 35.8049C73.215 33.0351 72.3255 30.7302 70.5273 28.8513C68.7678 26.9725 66.4669 26.0428 63.6632 26.0428C60.7049 26.0428 58.2879 26.9725 56.3737 28.8513C54.4982 30.7302 53.5314 33.1901 53.5314 36.2698V36.4248C53.5314 39.4464 54.4982 41.8869 56.3737 43.6883C58.2493 45.4896 60.7435 46.4193 63.7792 46.4193C67.2983 46.4193 70.102 45.0248 72.2095 42.623ZM58.2493 34.023C58.3846 32.8995 58.9647 31.9504 59.9508 31.1757C60.9949 30.3815 62.2517 29.9554 63.6825 29.936C65.036 29.936 66.1382 30.3621 67.1049 31.2144C68.0137 31.9892 68.5164 32.9383 68.5551 34.023H58.2493ZM108.618 55C111.654 55 113.626 53.4892 115.502 49.0342L125.015 26.5657H120.297L114.496 40.7248L108.85 26.5657H104.133L112.079 46.2257L111.151 48.3563C110.243 50.4869 109.276 50.8743 108.232 50.8743H106.53V55H108.618ZM51.3078 19.1473H46.7253V28.3284C45.1978 26.9531 42.8195 26.1396 40.5379 26.1396C37.8116 26.1396 35.5106 27.1081 33.6158 29.0838C31.7789 31.0013 30.8508 33.3838 30.8508 36.2698C30.8508 39.1558 31.7789 41.5383 33.6158 43.4946C35.4913 45.4121 37.7922 46.3806 40.5186 46.3806C43.6702 46.3806 45.6618 45.141 46.7059 44.1725V45.9545H51.3078V19.1473ZM45.3331 32.0279C46.4739 33.132 47.054 34.5653 47.054 36.2504C47.054 37.9549 46.4739 39.3689 45.3331 40.473C44.231 41.577 42.8001 42.1581 41.1566 42.1581C39.5131 42.1581 38.179 41.5964 37.0575 40.473C35.994 39.3689 35.4526 37.9356 35.4526 36.2504C35.4526 34.5653 35.9747 33.1513 37.0575 32.0279C38.1596 30.9239 39.5131 30.3428 41.1566 30.3428C42.8001 30.3428 44.2117 30.9045 45.3331 32.0279ZM103.688 33.9455C103.688 28.8901 100.981 26.1784 96.9784 26.1784C93.4786 26.1784 91.6611 27.6311 90.4236 29.0257C89.9209 28.0766 88.5094 26.1784 85.2417 26.1784C82.4767 26.1784 80.8332 27.573 80.0211 28.5802V26.5657H75.4579V45.9545H80.0211V34.7977C80.0211 32.1829 81.6259 30.304 83.7722 30.304C85.9764 30.304 87.2333 31.9504 87.2333 34.604V45.9545H91.7964V34.7977C91.7964 32.1441 93.3626 30.304 95.6249 30.304C97.8291 30.304 99.0859 31.9504 99.0859 34.604V45.9545H103.688V33.9455Z" fill="#070D04"/>
</svg>
